<svg width="800" height="800" viewBox="0 0 800 800" fill="none" xmlns="http://www.w3.org/2000/svg">
<path d="M140.303 396.874C145.38 396.874 149.496 392.758 149.496 387.681C149.496 382.604 145.38 378.488 140.303 378.488C135.225 378.488 131.109 382.604 131.109 387.681C131.109 392.758 135.225 396.874 140.303 396.874Z" fill="#61CE70" stroke="black" stroke-width="1.33234"/>
<path d="M275.002 407.133C280.079 407.133 284.195 403.017 284.195 397.94C284.195 392.863 280.079 388.747 275.002 388.747C269.925 388.747 265.809 392.863 265.809 397.94C265.809 403.017 269.925 407.133 275.002 407.133Z" fill="#61CE70" stroke="black" stroke-width="1.33234"/>
<path d="M181.072 487.207C190.785 487.207 198.659 479.333 198.659 469.62C198.659 459.907 190.785 452.033 181.072 452.033C171.359 452.033 163.485 459.907 163.485 469.62C163.485 479.333 171.359 487.207 181.072 487.207Z" fill="#8176FF"/>
<path d="M138.837 371.826C151.273 371.826 161.353 361.745 161.353 349.31C161.353 336.874 151.273 326.793 138.837 326.793C126.401 326.793 116.32 336.874 116.32 349.31C116.32 361.745 126.401 371.826 138.837 371.826Z" fill="#8176FF"/>
<path d="M246.357 431.382C252.979 431.382 258.348 426.013 258.348 419.391C258.348 412.768 252.979 407.4 246.357 407.4C239.734 407.4 234.366 412.768 234.366 419.391C234.366 426.013 239.734 431.382 246.357 431.382Z" fill="#8176FF"/>
<path d="M339.883 380.122L362.625 433.811C362.896 434.244 363.031 434.704 363.031 435.192C363.031 435.95 362.761 436.613 362.219 437.182C361.678 437.75 361.001 438.034 360.189 438.034H353.447C352.851 438.034 352.323 437.885 351.863 437.588C351.403 437.29 351.064 436.87 350.848 436.329L344.918 422.358H321.932L316.084 436.329C315.867 436.87 315.529 437.29 315.069 437.588C314.608 437.885 314.08 438.034 313.485 438.034H306.743C306.256 438.034 305.796 437.913 305.362 437.669C304.929 437.425 304.591 437.114 304.347 436.735C304.103 436.356 303.954 435.936 303.9 435.476C303.846 435.016 303.927 434.569 304.144 434.136L327.049 380.122C327.266 379.58 327.604 379.161 328.064 378.863C328.525 378.565 329.053 378.416 329.648 378.416H337.283C337.879 378.416 338.407 378.565 338.867 378.863C339.328 379.161 339.666 379.58 339.883 380.122V380.122ZM333.466 394.904L326.724 411.068H340.207L333.466 394.904ZM378.951 378.416C379.709 378.416 380.373 378.7 380.941 379.269C381.51 379.837 381.794 380.501 381.794 381.259V435.192C381.794 435.95 381.51 436.613 380.941 437.182C380.373 437.75 379.709 438.034 378.951 438.034H372.859C372.101 438.034 371.438 437.75 370.869 437.182C370.301 436.613 370.017 435.95 370.017 435.192V381.259C370.017 380.501 370.301 379.837 370.869 379.269C371.438 378.7 372.101 378.416 372.859 378.416H378.951ZM403.968 378.416C404.726 378.416 405.39 378.7 405.958 379.269C406.527 379.837 406.811 380.501 406.811 381.259V435.679C406.811 436.437 406.527 437.1 405.958 437.669C405.39 438.237 404.726 438.522 403.968 438.522H397.795C397.037 438.522 396.374 438.237 395.805 437.669C395.237 437.1 394.952 436.437 394.952 435.679V381.259C394.952 380.501 395.237 379.837 395.805 379.269C396.374 378.7 397.037 378.416 397.795 378.416H403.968ZM433.615 426.907C434.427 426.907 435.104 427.191 435.646 427.76C436.187 428.328 436.458 428.991 436.458 429.75V435.679C436.458 436.437 436.187 437.1 435.646 437.669C435.104 438.237 434.427 438.522 433.615 438.522H414.69C413.878 438.522 413.201 438.237 412.659 437.669C412.118 437.1 411.847 436.437 411.847 435.679V429.75C411.847 428.991 412.118 428.328 412.659 427.76C413.201 427.191 413.878 426.907 414.69 426.907H433.615ZM471.141 378.416C480.021 378.416 487.304 381.394 492.99 387.351C498.567 393.199 501.356 400.374 501.356 408.875C501.356 417.376 498.567 424.551 492.99 430.399C487.304 436.356 480.021 439.334 471.141 439.334C462.26 439.334 454.977 436.356 449.291 430.399C443.714 424.551 440.925 417.376 440.925 408.875C440.925 400.374 443.714 393.199 449.291 387.351C454.977 381.394 462.26 378.416 471.141 378.416ZM471.141 427.719C476.718 427.719 481.212 425.932 484.624 422.358C487.927 418.893 489.578 414.412 489.578 408.916C489.578 403.419 487.9 398.898 484.542 395.351C481.185 391.804 476.718 390.031 471.141 390.031C465.563 390.031 461.096 391.804 457.739 395.351C454.381 398.898 452.703 403.419 452.703 408.916C452.703 414.412 454.354 418.893 457.657 422.358C461.069 425.932 465.563 427.719 471.141 427.719V427.719ZM559.187 378.416C559.945 378.416 560.609 378.7 561.177 379.269C561.746 379.837 562.03 380.501 562.03 381.259V411.962C562.03 419.867 559.621 426.298 554.801 431.252C549.982 436.207 543.795 438.684 536.242 438.684C528.688 438.684 522.501 436.207 517.682 431.252C512.863 426.298 510.453 419.867 510.453 411.962V381.259C510.453 380.501 510.737 379.837 511.306 379.269C511.874 378.7 512.538 378.416 513.296 378.416H519.388C520.146 378.416 520.809 378.7 521.378 379.269C521.946 379.837 522.23 380.501 522.23 381.259V412.124C522.23 417.16 523.665 421.004 526.535 423.658C528.972 425.932 532.194 427.069 536.201 427.069C540.208 427.069 543.457 425.932 545.948 423.658C548.818 420.95 550.253 417.106 550.253 412.124V381.259C550.253 380.501 550.523 379.837 551.065 379.269C551.606 378.7 552.256 378.416 553.014 378.416H559.187V378.416ZM583.473 378.416C584.231 378.416 584.895 378.7 585.463 379.269C586.032 379.837 586.316 380.501 586.316 381.259V435.192C586.316 435.95 586.032 436.613 585.463 437.182C584.895 437.75 584.231 438.034 583.473 438.034H577.382C576.623 438.034 575.96 437.75 575.391 437.182C574.823 436.613 574.539 435.95 574.539 435.192V381.259C574.539 380.501 574.823 379.837 575.391 379.269C575.96 378.7 576.623 378.416 577.382 378.416H583.473ZM638.868 408.55C641.142 410.012 642.889 411.799 644.107 413.911C645.325 416.023 645.935 418.378 645.935 420.977C645.935 426.934 643.633 431.564 639.031 434.867C634.753 437.845 628.986 439.334 621.73 439.334C613.499 439.334 607.137 437.547 602.642 433.973C598.527 430.67 596.171 426.013 595.576 420.003C595.467 419.136 595.711 418.405 596.307 417.81C596.902 417.214 597.606 416.916 598.419 416.916H604.754C605.512 416.916 606.162 417.16 606.703 417.647C607.245 418.135 607.543 418.757 607.597 419.515C607.705 420.923 608.071 422.128 608.693 423.13C609.316 424.132 610.277 425.011 611.577 425.77C614.068 427.177 617.479 427.881 621.811 427.881C625.547 427.881 628.444 427.448 630.502 426.582C632.072 425.878 633.128 424.93 633.67 423.739C633.995 423.089 634.157 422.25 634.157 421.221C634.157 420.571 634.035 420.03 633.792 419.597C633.548 419.163 633.155 418.757 632.614 418.378C631.098 417.349 629.094 416.456 626.603 415.698C624.437 415.048 621.54 414.29 617.912 413.424C614.609 412.72 611.496 411.772 608.572 410.581C605.268 409.173 602.669 407.494 600.774 405.545C598.391 403.162 597.2 400.049 597.2 396.204C597.2 390.843 599.231 386.511 603.292 383.208C607.245 380.013 612.958 378.416 620.43 378.416C627.903 378.416 633.778 380.203 638.056 383.777C642.063 387.08 644.202 391.331 644.473 396.529C644.581 397.287 644.337 397.991 643.742 398.641C643.092 399.182 642.415 399.453 641.711 399.453H635.375C634.672 399.453 634.049 399.223 633.507 398.763C632.966 398.302 632.668 397.72 632.614 397.016C632.451 395.608 631.991 394.444 631.233 393.524C630.15 392.17 628.417 391.168 626.035 390.518C624.41 390.031 622.339 389.787 619.821 389.787C617.303 389.787 615.3 390.045 613.81 390.559C612.321 391.073 611.225 391.628 610.521 392.224C609.817 392.82 609.384 393.415 609.221 394.011C608.951 394.932 608.815 395.798 608.815 396.61C608.815 397.043 609.059 397.504 609.546 397.991C610.521 398.857 611.604 399.507 612.795 399.94C614.311 400.59 616.179 401.186 618.4 401.727C620.62 402.269 622.935 402.837 625.344 403.433C627.754 404.029 630.042 404.678 632.208 405.382C634.753 406.249 636.973 407.305 638.868 408.55V408.55ZM697.837 378.416C698.649 378.416 699.326 378.7 699.867 379.269C700.409 379.837 700.68 380.501 700.68 381.259V387.107C700.68 387.865 700.409 388.528 699.867 389.097C699.326 389.665 698.649 389.95 697.837 389.95H667.134V402.377H694.263C695.075 402.377 695.752 402.661 696.293 403.23C696.835 403.799 697.106 404.462 697.106 405.22V411.149C697.106 411.907 696.835 412.571 696.293 413.139C695.752 413.708 695.075 413.992 694.263 413.992H667.134V426.501H697.837C698.649 426.501 699.326 426.785 699.867 427.353C700.409 427.922 700.68 428.585 700.68 429.343V435.192C700.68 435.95 700.409 436.613 699.867 437.182C699.326 437.75 698.649 438.034 697.837 438.034H658.199C657.441 438.034 656.778 437.75 656.209 437.182C655.641 436.613 655.357 435.95 655.357 435.192V381.259C655.357 380.501 655.641 379.837 656.209 379.269C656.778 378.7 657.441 378.416 658.199 378.416H697.837V378.416Z" fill="white"/>
<path d="M189.066 448.569C204.521 448.569 218.911 439.509 225.572 425.653C230.236 415.927 230.902 404.868 227.304 394.742C223.707 384.483 216.379 376.356 206.653 371.693C201.057 369.028 195.195 367.696 189.066 367.696C173.611 367.696 159.222 376.756 152.56 390.612C147.897 400.338 147.231 411.397 150.828 421.522C154.425 431.781 161.753 439.909 171.479 444.572C177.075 447.237 182.937 448.569 189.066 448.569ZM157.223 419.124C154.292 410.597 154.692 401.537 158.689 393.41C164.285 381.819 176.142 374.358 189.066 374.358C194.129 374.358 199.059 375.423 203.589 377.688C211.716 381.552 217.845 388.347 220.776 396.874C223.707 405.401 223.307 414.461 219.31 422.588C213.714 434.18 201.857 441.641 188.933 441.641C183.87 441.641 178.94 440.575 174.41 438.31C166.283 434.446 160.288 427.651 157.223 419.124Z" fill="white"/>
<path d="M172.945 351.575C176.009 350.642 179.207 350.109 182.271 349.709C210.917 346.379 237.563 364.099 245.557 391.811C245.957 393.277 247.289 394.343 248.888 394.343C249.155 394.343 249.554 394.343 249.821 394.21C251.686 393.677 252.619 391.811 252.219 389.946C243.292 358.903 213.581 339.184 181.605 342.914C178.141 343.314 174.544 343.98 171.213 345.046C169.348 345.579 168.415 347.444 168.815 349.31C169.214 351.175 171.08 352.108 172.945 351.575V351.575Z" fill="white"/>
<path d="M132.575 424.187C130.576 417.259 129.91 410.198 130.443 403.003C130.576 401.138 129.244 399.539 127.379 399.272C125.514 399.139 123.782 400.472 123.648 402.337C122.982 410.331 123.782 418.192 125.913 425.919C129.377 437.91 136.039 448.569 145.232 456.696C145.898 457.229 146.698 457.629 147.497 457.629C148.43 457.629 149.362 457.229 150.029 456.43C151.228 454.964 151.095 452.832 149.762 451.633C141.635 444.439 135.639 434.846 132.575 424.187V424.187Z" fill="#61CE70"/>
<path d="M241.694 441.241C240.095 440.175 237.963 440.575 236.897 442.041C230.768 450.701 222.508 457.496 212.782 461.759C211.05 462.559 210.25 464.557 211.05 466.289C211.583 467.621 212.915 468.288 214.114 468.288C214.514 468.288 215.047 468.154 215.447 468.021C226.238 463.225 235.565 455.63 242.36 446.038C243.559 444.439 243.292 442.307 241.694 441.241H241.694Z" fill="white"/>
</svg>
